opsz144_wdth125.ufo
<glyph name="zero" format="2">
	<unicode hex="0030"/>
	<advance width="1175"/>
	<outline>
		<contour>
			<point x="74" y="747.0170898438" type="qcurve" smooth="yes"/>
			<point x="74" y="1120.1375732422"/>
			<point x="371.4857177734" y="1516.0021972656"/>
			<point x="589.8541259766" y="1516.0021972656" type="qcurve" smooth="yes"/>
			<point x="810.5570068359" y="1516.0021972656"/>
			<point x="1100.9290161133" y="1124.1215820312"/>
			<point x="1100.9290161133" y="752.0010986328" type="qcurve" smooth="yes"/>
			<point x="1100.9290161133" y="380.8166503906"/>
			<point x="814.6641235352" y="-26"/>
			<point x="589.8541259766" y="-26" type="qcurve" smooth="yes"/>
			<point x="373.1610717773" y="-26"/>
			<point x="74" y="365.9125976562"/>
		</contour>
		<contour>
			<point x="259.0667724609" y="776.9691162109" type="qcurve" smooth="yes"/>
			<point x="259" y="481"/>
			<point x="438.8502197266" y="86.3861083984"/>
			<point x="588.8541259766" y="86.3861083984" type="qcurve" smooth="yes"/>
			<point x="745.8580322266" y="86.3861083984"/>
			<point x="917" y="447"/>
			<point x="915.8622436523" y="755.0170898438" type="qcurve" smooth="yes"/>
			<point x="917" y="1027"/>
			<point x="736.8580322266" y="1399.8466186523"/>
			<point x="589.8541259766" y="1399.8466186523" type="qcurve" smooth="yes"/>
			<point x="430.8502197266" y="1399.8466186523"/>
			<point x="259" y="1060"/>
		</contour>
	</outline>
</glyph>
<glyph name="one" format="2">
	<unicode hex="0031"/>
	<advance width="857"/>
	<outline>
		<contour>
			<point x="50.9426269531" y="0" type="line"/>
			<point x="50.9426269531" y="94.0008544922" type="line"/>
			<point x="308.9401855469" y="129.0008544922" type="line"/>
			<point x="308.9401855469" y="752.5607910156" type="line"/>
			<point x="303.9401855469" y="1350.9420776367" type="line"/>
			<point x="44" y="1391.694152832" type="line"/>
			<point x="44" y="1483.4647216797" type="line"/>
			<point x="466.1196899414" y="1517.0021972656" type="line"/>
			<point x="494.1500244141" y="1482.0787963867" type="line"/>
			<point x="485.0429077148" y="751.5607910156" type="line"/>
			<point x="485.0429077148" y="129.0008544922" type="line"/>
			<point x="732.0404663086" y="94.0008544922" type="line"/>
			<point x="732.0404663086" y="0" type="line"/>
		</contour>
	</outline>
</glyph>
<glyph name="two" format="2">
	<unicode hex="0032"/>
	<advance width="1071"/>
	<outline>
		<contour>
			<point x="38" y="-0.6923217773" type="line"/>
			<point x="38" y="127" type="line"/>
			<point x="54.1271972656" y="254.6002197266"/>
			<point x="223.350402832" y="489.2035522461"/>
			<point x="416.9008178711" y="616.9522705078" type="qcurve" smooth="yes"/>
			<point x="556.9596557617" y="697.4611206055"/>
			<point x="739.6190795898" y="934.0185546875"/>
			<point x="739.6190795898" y="1114.216796875" type="qcurve" smooth="yes"/>
			<point x="739.6190795898" y="1262.1567993164"/>
			<point x="596.5523071289" y="1383.4619750977"/>
			<point x="432.8432617188" y="1383.4619750977" type="qcurve" smooth="yes"/>
			<point x="351.1362915039" y="1383.4619750977"/>
			<point x="207.2727661133" y="1317.1176757812"/>
			<point x="180.4625244141" y="1247.2017822266" type="qcurve"/>
			<point x="92" y="1351.8852539062" type="line"/>
			<point x="140.9617919922" y="1425.3079223633"/>
			<point x="351.739440918" y="1516.0021972656"/>
			<point x="529.3793945312" y="1516.0021972656" type="qcurve" smooth="yes"/>
			<point x="719.7626342773" y="1516.0021972656"/>
			<point x="925.4356689453" y="1331.5458984375"/>
			<point x="925.4356689453" y="1160.2463989258" type="qcurve" smooth="yes"/>
			<point x="925.4356689453" y="975.3399658203"/>
			<point x="668.2872314453" y="703.8651733398"/>
			<point x="466.8356933594" y="584.7596435547" type="qcurve" smooth="yes"/>
			<point x="319.5641479492" y="485.8443603516"/>
			<point x="209.5434570312" y="270.5334472656"/>
			<point x="199.1979370117" y="186.9995727539" type="qcurve"/>
			<point x="205.1979370117" y="178.0315551758" type="line"/>
			<point x="990.8839111328" y="178.0315551758" type="line"/>
			<point x="990.8839111328" y="-0.6923217773" type="line"/>
		</contour>
	</outline>
</glyph>
<glyph name="three" format="2">
	<unicode hex="0033"/>
	<advance width="1087"/>
	<outline>
		<contour>
			<point x="0" y="187" type="qcurve"/>
			<point x="74.6932373047" y="295.2321777344" type="line"/>
			<point x="131.4201049805" y="232.1220092773"/>
			<point x="314.4869384766" y="108.6939697266"/>
			<point x="414.2122192383" y="108.6939697266" type="qcurve" smooth="yes"/>
			<point x="618.0606079102" y="108.6939697266"/>
			<point x="823.0115966797" y="311.1207275391"/>
			<point x="823.0115966797" y="465.8711547852" type="qcurve" smooth="yes"/>
			<point x="823.0115966797" y="609.6953735352"/>
			<point x="585.1501464844" y="761.7824707031"/>
			<point x="338.1597900391" y="763.7055053711" type="qcurve" smooth="yes"/>
			<point x="296.6142578125" y="763.7055053711" type="line"/>
			<point x="263.1322021484" y="875.7677612305" type="line"/>
			<point x="335.3431396484" y="875.7677612305" type="line" smooth="yes"/>
			<point x="500.1564941406" y="874.6588134766"/>
			<point x="752.6213989258" y="1029.7455444336"/>
			<point x="752.6213989258" y="1152.848815918" type="qcurve" smooth="yes"/>
			<point x="752.6213989258" y="1274.8463134766"/>
			<point x="610.7360229492" y="1372.5231323242"/>
			<point x="455.8062744141" y="1372.5231323242" type="qcurve" smooth="yes"/>
			<point x="351.0942993164" y="1372.5231323242"/>
			<point x="194.1776733398" y="1277.4884643555"/>
			<point x="145.4154052734" y="1214.114440918" type="qcurve"/>
			<point x="84.7792358398" y="1311.8372802734" type="line"/>
			<point x="143.9390869141" y="1388.7334594727"/>
			<point x="380.4086914062" y="1515.9702148438"/>
			<point x="528.1075439453" y="1515.9702148438" type="qcurve" smooth="yes"/>
			<point x="726.8491821289" y="1515.9702148438"/>
			<point x="936.7952880859" y="1362.4499511719"/>
			<point x="936.7952880859" y="1226.7327880859" type="qcurve" smooth="yes"/>
			<point x="936.7952880859" y="1084.2495117188"/>
			<point x="746.483215332" y="891.7030029297"/>
			<point x="555.1470947266" y="848.8411865234" type="qcurve"/>
			<point x="555.4684448242" y="841.8731689453" type="line"/>
			<point x="773.6165771484" y="825.1710205078"/>
			<point x="1016.8347167969" y="634.0039672852"/>
			<point x="1016.8347167969" y="450.5555419922" type="qcurve" smooth="yes"/>
			<point x="1016.8347167969" y="257.4403076172"/>
			<point x="725.6862792969" y="-25"/>
			<point x="479.6877441406" y="-25" type="qcurve" smooth="yes"/>
			<point x="302.7354125977" y="-25"/>
			<point x="62.0100708008" y="112.7792358398"/>
		</contour>
	</outline>
</glyph>
<glyph name="four" format="2">
	<unicode hex="0034"/>
	<advance width="1096"/>
	<outline>
		<contour>
			<point x="39" y="515.7846679688" type="line"/>
			<point x="708.754699707" y="1502.3220214844" type="line"/>
			<point x="827.3952026367" y="1472.3220214844" type="line"/>
			<point x="859.6087036133" y="1432.3220214844" type="line"/>
			<point x="851.6087036133" y="471.014831543" type="line"/>
			<point x="852.6087036133" y="129.0008544922" type="line"/>
			<point x="1033.9710083008" y="94.0008544922" type="line"/>
			<point x="1033.9710083008" y="0" type="line"/>
			<point x="400.834777832" y="0" type="line"/>
			<point x="400.834777832" y="94.0008544922" type="line"/>
			<point x="671.4700317383" y="129.0008544922" type="line"/>
			<point x="667.4700317383" y="474.014831543" type="line"/>
			<point x="673.4700317383" y="1264.8812866211" type="line"/>
			<point x="198.9259033203" y="538.7846679688" type="line"/>
			<point x="204.9259033203" y="531.7846679688" type="line"/>
			<point x="1055.9224853516" y="520.7846679688" type="line"/>
			<point x="1055.9224853516" y="423.4757080078" type="line"/>
			<point x="58" y="413.4757080078" type="line"/>
		</contour>
	</outline>
</glyph>
<glyph name="five" format="2">
	<unicode hex="0035"/>
	<advance width="1137"/>
	<outline>
		<contour>
			<point x="-6" y="106" type="qcurve"/>
			<point x="54.8326416016" y="205.6328125" type="line"/>
			<point x="117.7942504883" y="166.1152954102"/>
			<point x="321.657043457" y="99.540222168"/>
			<point x="450.6516113281" y="99.540222168" type="qcurve" smooth="yes"/>
			<point x="661.6887817383" y="99.540222168"/>
			<point x="870.5009765625" y="326.3837890625"/>
			<point x="870.5009765625" y="501.7337646484" type="qcurve" smooth="yes"/>
			<point x="870.5009765625" y="661.0997314453"/>
			<point x="626.6024780273" y="782.3402099609"/>
			<point x="372.4546508789" y="782.3402099609" type="qcurve" smooth="yes"/>
			<point x="199.4816894531" y="782.3402099609" type="line"/>
			<point x="144.7120361328" y="832.8891601562" type="line"/>
			<point x="222.7120361328" y="1463.2580566406" type="line"/>
			<point x="259.7120361328" y="1496.2580566406" type="line"/>
			<point x="933.041809082" y="1496.2580566406" type="line"/>
			<point x="897.9706420898" y="1317.1553344727" type="line"/>
			<point x="335.1037597656" y="1317.1553344727" type="line"/>
			<point x="321.1037597656" y="1306.1553344727" type="line"/>
			<point x="271.6365356445" y="908.8190917969" type="line"/>
			<point x="422.6452636719" y="954.4924316406" type="line"/>
			<point x="748.9183959961" y="960.2716674805"/>
			<point x="1025.9119873047" y="709.9817504883"/>
			<point x="1025.9119873047" y="477.8200073242" type="qcurve" smooth="yes"/>
			<point x="1025.9119873047" y="236.4083251953"/>
			<point x="745.1122436523" y="-23"/>
			<point x="475.2122192383" y="-23" type="qcurve" smooth="yes"/>
			<point x="319.3024902344" y="-23"/>
			<point x="72.2373657227" y="47.6491699219"/>
		</contour>
	</outline>
</glyph>
<glyph name="six" format="2">
	<unicode hex="0036"/>
	<advance width="1176"/>
	<outline>
		<contour>
			<point x="75" y="601.3848876953" type="qcurve" smooth="yes"/>
			<point x="75" y="956.3325805664"/>
			<point x="463.3960571289" y="1448.2153320312"/>
			<point x="789.6553344727" y="1546.0021972656" type="qcurve"/>
			<point x="822.9434814453" y="1442.0178222656" type="line"/>
			<point x="584.0894165039" y="1367.4165649414"/>
			<point x="261.8525390625" y="942.8734741211"/>
			<point x="261.8525390625" y="603.3848876953" type="qcurve" smooth="yes"/>
			<point x="261.8525390625" y="441.5958251953"/>
			<point x="421.2943725586" y="88.0014648438"/>
			<point x="585.9752807617" y="88.0014648438" type="qcurve" smooth="yes"/>
			<point x="744.6561889648" y="88.0014648438"/>
			<point x="934.0061645508" y="307.7973022461"/>
			<point x="934.0061645508" y="428.7846679688" type="qcurve" smooth="yes"/>
			<point x="934.0061645508" y="578.3662719727"/>
			<point x="791.7663574219" y="781.4554443359"/>
			<point x="657.0088500977" y="781.4554443359" type="qcurve" smooth="yes"/>
			<point x="570.910949707" y="781.4554443359"/>
			<point x="471.5112915039" y="748.1544189453"/>
			<point x="469.7770996094" y="741.1440429688" type="qcurve"/>
			<point x="432.2406616211" y="811.7493286133" type="line"/>
			<point x="450.4241943359" y="832.5963134766"/>
			<point x="574.8604736328" y="887.6013183594"/>
			<point x="666.6520996094" y="887.6013183594" type="qcurve" smooth="yes"/>
			<point x="854.0779418945" y="887.6013183594"/>
			<point x="1098.2512207031" y="663.208984375"/>
			<point x="1098.2512207031" y="437.4357910156" type="qcurve" smooth="yes"/>
			<point x="1098.2512207031" y="214.6078491211"/>
			<point x="793.1176147461" y="-24"/>
			<point x="585.2826538086" y="-24" type="qcurve" smooth="yes"/>
			<point x="353.5750732422" y="-24"/>
			<point x="75" y="309.2054443359"/>
		</contour>
	</outline>
</glyph>
<glyph name="seven" format="2">
	<unicode hex="0037"/>
	<advance width="999"/>
	<outline>
		<contour>
			<point x="38.9590454102" y="1082.0131225586" type="line"/>
			<point x="63.474609375" y="1496.2580566406" type="line"/>
			<point x="969.7538452148" y="1496.2580566406" type="line"/>
			<point x="969.7538452148" y="1418.7598876953" type="line"/>
			<point x="642.4642944336" y="729.3936767578" type="line"/>
			<point x="369.3491821289" y="-10" type="line"/>
			<point x="266.8898925781" y="-10" type="line"/>
			<point x="266.8898925781" y="27.3558349609" type="line"/>
			<point x="565.7384033203" y="755.3736572266" type="line"/>
			<point x="765.783203125" y="1305.0122680664" type="line"/>
			<point x="761.783203125" y="1316.0122680664" type="line"/>
			<point x="223.4053955078" y="1316.0122680664" type="line"/>
			<point x="153.8670654297" y="1082.0131225586" type="line"/>
		</contour>
	</outline>
</glyph>
<glyph name="eight" format="2">
	<unicode hex="0038"/>
	<advance width="1169"/>
	<outline>
		<contour>
			<point x="49.9224853516" y="362.7230224609" type="qcurve" smooth="yes"/>
			<point x="49.9224853516" y="535.3252563477"/>
			<point x="350.6430664062" y="779.5339355469"/>
			<point x="446.7550048828" y="826.9319458008" type="qcurve"/>
			<point x="525.244934082" y="775.0573120117" type="line"/>
			<point x="427.1221923828" y="721.4323730469"/>
			<point x="235.6166381836" y="502.5789794922"/>
			<point x="235.6166381836" y="373.4476928711" type="qcurve" smooth="yes"/>
			<point x="235.6166381836" y="219.1201782227"/>
			<point x="418.9487304688" y="89.6168212891"/>
			<point x="586.000793457" y="89.6168212891" type="qcurve" smooth="yes"/>
			<point x="723.5815429688" y="89.6168212891"/>
			<point x="924.8397216797" y="194.1841430664"/>
			<point x="924.8397216797" y="336.6765136719" type="qcurve" smooth="yes"/>
			<point x="924.8397216797" y="478.9187011719"/>
			<point x="685.9000244141" y="649.6837158203"/>
			<point x="538.2913208008" y="731.7330322266" type="qcurve" smooth="yes"/>
			<point x="334.8813476562" y="832.7362670898"/>
			<point x="154.6235961914" y="1012.3444824219"/>
			<point x="154.6235961914" y="1178.1415405273" type="qcurve" smooth="yes"/>
			<point x="154.6235961914" y="1330.709777832"/>
			<point x="378.0313720703" y="1506.1301269531"/>
			<point x="571.3451538086" y="1506.1301269531" type="qcurve" smooth="yes"/>
			<point x="766.4652099609" y="1506.1301269531"/>
			<point x="998.2912597656" y="1348.6098632812"/>
			<point x="998.2912597656" y="1199.8237304688" type="qcurve" smooth="yes"/>
			<point x="998.2912597656" y="1070.3630981445"/>
			<point x="823.4949951172" y="858.6591186523"/>
			<point x="703.4092407227" y="789.5119018555" type="qcurve"/>
			<point x="617.9785766602" y="846.1517333984" type="line"/>
			<point x="729.2304077148" y="920.1972045898"/>
			<point x="822.2124633789" y="1074.3170166016"/>
			<point x="822.9047851562" y="1175.5924682617" type="qcurve" smooth="yes"/>
			<point x="823.5971069336" y="1306.9008178711"/>
			<point x="677.0118408203" y="1386.8369750977"/>
			<point x="571.7724609375" y="1386.8369750977" type="qcurve" smooth="yes"/>
			<point x="439.7821655273" y="1386.8369750977"/>
			<point x="310.2985839844" y="1311.1166381836"/>
			<point x="310.2985839844" y="1225.5059814453" type="qcurve" smooth="yes"/>
			<point x="310.2985839844" y="1124.6992797852"/>
			<point x="475.0680541992" y="972.9950561523"/>
			<point x="677.3931274414" y="865.7028198242" type="qcurve" smooth="yes"/>
			<point x="820.6112670898" y="773.8086547852"/>
			<point x="1095.2285766602" y="560.719909668"/>
			<point x="1095.2285766602" y="382.0388793945" type="qcurve" smooth="yes"/>
			<point x="1095.2285766602" y="197.6162109375"/>
			<point x="829.7673339844" y="-23"/>
			<point x="603.6857910156" y="-23" type="qcurve" smooth="yes"/>
			<point x="326.3128051758" y="-23"/>
			<point x="49.9224853516" y="193.3085327148"/>
		</contour>
	</outline>
</glyph>
<glyph name="nine" format="2">
	<unicode hex="0039"/>
	<advance width="1175"/>
	<outline>
		<contour>
			<point x="87" y="1092.2974853516" type="qcurve" smooth="yes"/>
			<point x="87" y="1306.7058105469"/>
			<point x="367.3453979492" y="1516.9862060547"/>
			<point x="571.787109375" y="1516.9862060547" type="qcurve" smooth="yes"/>
			<point x="809.4053955078" y="1516.9862060547"/>
			<point x="1090.2512207031" y="1188.1184692383"/>
			<point x="1090.2512207031" y="920.6173095703" type="qcurve" smooth="yes"/>
			<point x="1090.2512207031" y="529.3369140625"/>
			<point x="690.7570800781" y="49.0923461914"/>
			<point x="364.547668457" y="-47.255859375" type="qcurve"/>
			<point x="337.0387573242" y="56.1860351562" type="line"/>
			<point x="589.9628295898" y="128.485168457"/>
			<point x="913.2203979492" y="518.1127319336"/>
			<point x="911.2203979492" y="844.6013183594" type="qcurve" smooth="yes"/>
			<point x="910.2203979492" y="1074.6086425781"/>
			<point x="748.5651855469" y="1405.9847412109"/>
			<point x="566.0441894531" y="1405.9847412109" type="qcurve" smooth="yes"/>
			<point x="443.1553955078" y="1405.9847412109"/>
			<point x="270.0667724609" y="1231.9295654297"/>
			<point x="270.0667724609" y="1109.3344726562" type="qcurve" smooth="yes"/>
			<point x="270.0667724609" y="980.4479980469"/>
			<point x="393.2423095703" y="782.5307617188"/>
			<point x="504.3848266602" y="782.5307617188" type="qcurve" smooth="yes"/>
			<point x="591.0174560547" y="782.5307617188"/>
			<point x="692.6900634766" y="832.4119873047"/>
			<point x="695.3134765625" y="838.1885986328" type="qcurve"/>
			<point x="725.8684082031" y="777.0543212891" type="line"/>
			<point x="703.3607177734" y="749.0149536133"/>
			<point x="577.7375488281" y="691.1450195312"/>
			<point x="506.1773071289" y="691.1450195312" type="qcurve" smooth="yes"/>
			<point x="334.1535644531" y="691.1450195312"/>
			<point x="87" y="915.6812744141"/>
		</contour>
	</outline>
</glyph>
<glyph name="A" format="2">
	<unicode hex="0041"/>
	<advance width="1501"/>
	<outline>
		<contour>
			<point x="-57.3680419922" y="0" type="line"/>
			<point x="-55.3680419922" y="101.0009765625" type="line"/>
			<point x="143.2464599609" y="136.0009765625" type="line"/>
			<point x="325.9806518555" y="552.1511230469" type="line"/>
			<point x="721.9942016602" y="1506" type="line"/>
			<point x="829.001159668" y="1506" type="line"/>
			<point x="1207.3284912109" y="543.2098388672" type="line"/>
			<point x="1360.7670288086" y="136.0009765625" type="line"/>
			<point x="1540.1892700195" y="101.0009765625" type="line"/>
			<point x="1538.1892700195" y="0" type="line"/>
			<point x="982.8932495117" y="0" type="line"/>
			<point x="984.8932495117" y="101.0009765625" type="line"/>
			<point x="1165.3347167969" y="136.0009765625" type="line"/>
			<point x="1002.8375244141" y="590.3255615234" type="line"/>
			<point x="786.2412719727" y="1130.9440917969" type="line"/>
			<point x="765.1310424805" y="1221.7860107422" type="line"/>
			<point x="765.1310424805" y="1221.7860107422" type="line"/>
			<point x="743.0065917969" y="1129.3311767578" type="line"/>
			<point x="480.5471191406" y="540.7608642578" type="line"/>
			<point x="332.1141357422" y="137.0009765625" type="line"/>
			<point x="580.5171508789" y="101.0009765625" type="line"/>
			<point x="578.5171508789" y="0" type="line"/>
		</contour>
		<contour>
			<point x="740" y="552" type="line"/>
			<point x="1081.4375236265" y="609.2581176758" type="line"/>
			<point x="1104.474816107" y="473.9348754883" type="line"/>
			<point x="740" y="448" type="line"/>
		</contour>
		<contour>
			<point x="377.7250976562" y="473.9348754883" type="line"/>
			<point x="400.5116577148" y="607.4516601562" type="line"/>
			<point x="703.8976578251" y="622.7095947266" type="line"/>
			<point x="699.8976578251" y="499.8697509766" type="line"/>
		</contour>
	</outline>
	<anchor name="bottom" x="735" y="0"/>
	<anchor name="ogonek" x="1318" y="0"/>
	<anchor name="tonos" x="492" y="1500"/>
	<anchor name="top" x="753" y="1500"/>
</glyph>
<glyph name="B" format="2">
	<unicode hex="0042"/>
	<advance width="1555"/>
	<outline>
		<contour>
			<point x="80.9995117188" y="0" type="line"/>
			<point x="80.9995117188" y="101.0009765625" type="line"/>
			<point x="289.9985351562" y="136.0009765625" type="line"/>
			<point x="291.9985351562" y="754" type="line"/>
			<point x="289.9985351562" y="1350.3588867188" type="line"/>
			<point x="80.9995117188" y="1384.3588867188" type="line"/>
			<point x="80.9995117188" y="1500" type="line"/>
			<point x="802.4525638703" y="1500" type="line" smooth="yes"/>
			<point x="1034.0148591073" y="1500"/>
			<point x="1275.777867471" y="1315"/>
			<point x="1275.777867471" y="1175" type="qcurve" smooth="yes"/>
			<point x="1275.777867471" y="1038"/>
			<point x="1117.1442477319" y="860.435483871"/>
			<point x="971.1337693738" y="838.435483871" type="qcurve"/>
			<point x="971.1337693738" y="831.435483871" type="line"/>
			<point x="1145.5784675844" y="808.1532258065"/>
			<point x="1193" y="604"/>
			<point x="1368.52632781" y="446.2096774194" type="qcurve" smooth="yes"/>
			<point x="1368.52632781" y="250"/>
			<point x="1072.4646645823" y="0"/>
			<point x="820.7113253686" y="0" type="qcurve" smooth="yes"/>
		</contour>
		<contour>
			<point x="463.0445556641" y="131.2586669922" type="line"/>
			<point x="488.0445556641" y="115.0974121094" type="line"/>
			<point x="827.1561495874" y="115.0974121094" type="line" smooth="yes"/>
			<point x="1004.3004366967" y="115.0974121094"/>
			<point x="1172.2012545678" y="255.713684082"/>
			<point x="1172.2012545678" y="436" type="qcurve" smooth="yes"/>
			<point x="1172.2012545678" y="586.3705444336"/>
			<point x="1005.0139357044" y="737.8704833984"/>
			<point x="857.9634025328" y="737.8704833984" type="qcurve" smooth="yes"/>
			<point x="464.9050292969" y="737.8704833984" type="line"/>
			<point x="460.9050292969" y="728.0963134766" type="line"/>
		</contour>
		<contour>
			<point x="460.8585205078" y="868.7420654297" type="line"/>
			<point x="463.8585205078" y="852.1614379883" type="line"/>
			<point x="792.3663723853" y="852.1614379883" type="line" smooth="yes"/>
			<point x="936.7026111234" y="852.1614379883"/>
			<point x="1083.5767428491" y="1047.9188842773"/>
			<point x="1083.5767428491" y="1180" type="qcurve" smooth="yes"/>
			<point x="1083.5767428491" y="1313.2128295898"/>
			<point x="938.9590670678" y="1369.8057250977"/>
			<point x="816.1007907006" y="1369.8057250977" type="qcurve" smooth="yes"/>
			<point x="491.0910644531" y="1369.8057250977" type="line"/>
			<point x="465.0910644531" y="1357.6444702148" type="line"/>
		</contour>
	</outline>
	<anchor name="bottom" x="614" y="0"/>
	<anchor name="top" x="614" y="1500"/>
</glyph>
<glyph name="C" format="2">
	<unicode hex="0043"/>
	<advance width="1443"/>
	<outline>
		<contour>
			<point x="82.0004882812" y="734" type="qcurve" smooth="yes"/>
			<point x="82.0004882812" y="1105"/>
			<point x="527.5497771232" y="1518"/>
			<point x="860.202473302" y="1518" type="qcurve" smooth="yes"/>
			<point x="1026.8759588426" y="1518"/>
			<point x="1201.5411534464" y="1460.3064516129"/>
			<point x="1269.9027906848" y="1403" type="qcurve"/>
			<point x="1329.1759840442" y="1489" type="line"/>
			<point x="1426.1599928333" y="1489" type="line"/>
			<point x="1426.1599928333" y="957.1959838867" type="line"/>
			<point x="1331.5946852161" y="957.1959838867" type="line"/>
			<point x="1285.7576293945" y="1071.4186401367" type="line" smooth="yes"/>
			<point x="1215.7576293945" y="1237.2250976562"/>
			<point x="994.5189208984" y="1388.0315551758"/>
			<point x="853.7214355469" y="1388.0315551758" type="qcurve" smooth="yes"/>
			<point x="562.7201538086" y="1388.0315551758"/>
			<point x="265.5115966797" y="1031.4449462891"/>
			<point x="265.5115966797" y="731" type="qcurve" smooth="yes"/>
			<point x="265.5115966797" y="460.5115966797"/>
			<point x="588.282663653" y="106.3232421875"/>
			<point x="932.3932790449" y="106.3232421875" type="qcurve" smooth="yes"/>
			<point x="1142.8100408739" y="106.3232421875"/>
			<point x="1376.4848632812" y="257.3555297852"/>
			<point x="1390.3272291614" y="302.9036865234" type="qcurve"/>
			<point x="1474.9084059192" y="212" type="line"/>
			<point x="1398.4377441406" y="108"/>
			<point x="1100.9220876386" y="-26"/>
			<point x="886.8522063224" y="-26" type="qcurve" smooth="yes"/>
			<point x="500.3796780493" y="-26"/>
			<point x="82.0004882812" y="382"/>
		</contour>
	</outline>
	<anchor name="bottom" x="836" y="0"/>
	<anchor name="top" x="836" y="1500"/>
</glyph>
<glyph name="F" format="2">
	<unicode hex="0046"/>
	<advance width="1209"/>
	<outline>
		<contour>
			<point x="80.9995117188" y="0" type="line"/>
			<point x="80.9995117188" y="101.0009765625" type="line"/>
			<point x="289.9985351562" y="136.0009765625" type="line"/>
			<point x="291.9985351562" y="767" type="line"/>
			<point x="289.9985351562" y="1350.3588867188" type="line"/>
			<point x="80.9995117188" y="1383.3588867188" type="line"/>
			<point x="80.9995117188" y="1500" type="line"/>
			<point x="1172.0236560453" y="1500" type="line"/>
			<point x="1172.0236560453" y="1152.5390625" type="line"/>
			<point x="1071.0210925687" y="1152.5390625" type="line"/>
			<point x="971.0210925687" y="1380.483215332" type="line"/>
			<point x="491.0445556641" y="1380.483215332" type="line"/>
			<point x="465.0445556641" y="1357.483215332" type="line"/>
			<point x="465.9515380859" y="767" type="line"/>
			<point x="468.0445556641" y="136.0009765625" type="line"/>
			<point x="657.4281005859" y="101.0009765625" type="line"/>
			<point x="657.4281005859" y="0" type="line"/>
		</contour>
		<contour>
			<point x="378.9982910156" y="724.2900390625" type="line"/>
			<point x="378.9982910156" y="839.903503418" type="line"/>
			<point x="880.0210925687" y="848.5487060547" type="line"/>
			<point x="962.0210925687" y="986.3681640625" type="line"/>
			<point x="1048.0236560453" y="986.3681640625" type="line"/>
			<point x="1048.0236560453" y="537.904296875" type="line"/>
			<point x="962.0210925687" y="537.904296875" type="line"/>
			<point x="880.0210925687" y="715.6448364258" type="line"/>
		</contour>
	</outline>
	<anchor name="bottom" x="578" y="0"/>
	<anchor name="top" x="622" y="1500"/>
</glyph>
<glyph name="J" format="2">
	<unicode hex="004A"/>
	<advance width="766"/>
	<outline>
		<contour>
			<point x="40.3728027344" y="-206.5048217773" type="qcurve"/>
			<point x="47.3728027344" y="-77.5036010742" type="line"/>
			<point x="67.2384033203" y="-80.4235229492"/>
			<point x="139.8352050781" y="-84.5433959961"/>
			<point x="196.0888061523" y="-82.2633666992" type="qcurve" smooth="yes"/>
			<point x="222.700012207" y="-79.7929077148"/>
			<point x="299.9984130859" y="-64.0643920898"/>
			<point x="299.9984130859" y="45.9356079102" type="qcurve" smooth="yes"/>
			<point x="297.9984130859" y="754" type="line"/>
			<point x="295.9984130859" y="1350.3588867188" type="line"/>
			<point x="57.0955200195" y="1384.3588867188" type="line"/>
			<point x="57.0955200195" y="1500" type="line"/>
			<point x="688.6043701172" y="1500" type="line"/>
			<point x="688.6043701172" y="1389.4134521484" type="line"/>
			<point x="474.9514160156" y="1355.4134521484" type="line"/>
			<point x="472.8583984375" y="754" type="line"/>
			<point x="476.4165039062" y="129.9356079102" type="line" smooth="yes"/>
			<point x="475.7371826172" y="-44.0643920898"/>
			<point x="318.0003051758" y="-221.5045776367"/>
			<point x="228.8538818359" y="-221.5045776367" type="qcurve" smooth="yes"/>
			<point x="167.709777832" y="-221.5045776367"/>
			<point x="63.6104736328" y="-211.9047241211"/>
		</contour>
	</outline>
	<anchor name="bottom" x="376" y="-208"/>
	<anchor name="top" x="376" y="1500"/>
	<anchor name="_liga" x="0" y="0"/>
</glyph>
<glyph name="K" format="2">
	<unicode hex="004B"/>
	<advance width="1388"/>
	<outline>
		<contour>
			<point x="80.9995117188" y="0" type="line"/>
			<point x="80.9995117188" y="101.0009765625" type="line"/>
			<point x="289.9985351562" y="136.0009765625" type="line"/>
			<point x="291.9985351562" y="754" type="line"/>
			<point x="289.9985351562" y="1350.3588867188" type="line"/>
			<point x="80.9995117188" y="1384.3588867188" type="line"/>
			<point x="80.9995117188" y="1500" type="line"/>
			<point x="684.8513183594" y="1500" type="line"/>
			<point x="684.8513183594" y="1384.3588867188" type="line"/>
			<point x="468.0445556641" y="1350.3588867188" type="line"/>
			<point x="462.9515380859" y="755.8786621094" type="line"/>
			<point x="468.0445556641" y="136.0009765625" type="line"/>
			<point x="675.0435791016" y="101.0009765625" type="line"/>
			<point x="675.0435791016" y="0" type="line"/>
		</contour>
		<contour>
			<point x="372.3851928711" y="463.4367675781" type="line"/>
			<point x="367.3851928711" y="624.5751342773" type="line"/>
			<point x="1027.5899047852" y="1354.3588867188" type="line"/>
			<point x="783.763671875" y="1384.3588867188" type="line"/>
			<point x="783.763671875" y="1500" type="line"/>
			<point x="1476.72265625" y="1500" type="line"/>
			<point x="1476.72265625" y="1384.3588867188" type="line"/>
			<point x="1233.3004150391" y="1354.3588867188" type="line"/>
			<point x="701.3246459961" y="874" type="line"/>
			<point x="692.4948120117" y="853" type="line"/>
		</contour>
		<contour>
			<point x="577.5821533203" y="810.8693847656" type="line"/>
			<point x="719.734311996" y="957.3961142263" type="line"/>
			<point x="1301.6336197391" y="136.0009765625" type="line"/>
			<point x="1486.6521133915" y="101.0009765625" type="line"/>
			<point x="1486.6521133915" y="0" type="line"/>
			<point x="849.7736658896" y="0" type="line"/>
			<point x="849.7736658896" y="101.0009765625" type="line"/>
			<point x="1046.0036463583" y="136.0009765625" type="line"/>
		</contour>
	</outline>
	<anchor name="bottom" x="812" y="0"/>
	<anchor name="top" x="770" y="1500"/>
</glyph>
<glyph name="L" format="2">
	<unicode hex="004C"/>
	<advance width="1303"/>
	<outline>
		<contour>
			<point x="80.9995117188" y="0" type="line"/>
			<point x="80.9995117188" y="101.0009765625" type="line"/>
			<point x="289.9985351562" y="135.0009765625" type="line"/>
			<point x="291.9985351562" y="754" type="line"/>
			<point x="289.9985351562" y="1350.3588867188" type="line"/>
			<point x="80.9995117188" y="1383.3588867188" type="line"/>
			<point x="80.9995117188" y="1500" type="line"/>
			<point x="686.4857788086" y="1500" type="line"/>
			<point x="686.4857788086" y="1384.3588867188" type="line"/>
			<point x="469.0445556641" y="1350.3588867188" type="line"/>
			<point x="466.9515380859" y="754" type="line"/>
			<point x="469.0445556641" y="138.4522094727" type="line"/>
			<point x="524.0445556641" y="116.4522094727" type="line"/>
			<point x="987.8300190587" y="116.4522094727" type="line"/>
			<point x="1158.8300190587" y="487.0059204102" type="line"/>
			<point x="1265.5964985509" y="487.0059204102" type="line"/>
			<point x="1208.9190083165" y="0" type="line"/>
		</contour>
	</outline>
	<anchor name="bottom" x="705" y="0"/>
	<anchor name="centerright" x="928" y="750"/>
	<anchor name="top" x="632" y="1500"/>
	<anchor name="topright" x="784" y="1001"/>
	<anchor name="center" x="378" y="750"/>
	<anchor name="liga" x="1264" y="0"/>
</glyph>
<glyph name="M" format="2">
	<unicode hex="004D"/>
	<advance width="2116"/>
	<outline>
		<contour>
			<point x="80.9995117188" y="0" type="line"/>
			<point x="80.9995117188" y="101.0009765625" type="line"/>
			<point x="317.9985351562" y="136.0009765625" type="line"/>
			<point x="319.9985351562" y="747" type="line"/>
			<point x="319.9985351562" y="1350.3588867188" type="line"/>
			<point x="80.9995117188" y="1384.3588867188" type="line"/>
			<point x="80.9995117188" y="1500" type="line"/>
			<point x="633.4844360352" y="1500" type="line"/>
			<point x="903.0006713867" y="803.9273681641" type="line"/>
			<point x="1034.2634887695" y="362.0521240234" type="line"/>
			<point x="1074.1991577148" y="249.8771362305" type="line"/>
			<point x="1074.1991577148" y="249.8771362305" type="line"/>
			<point x="1112.8607788086" y="362.8992919922" type="line"/>
			<point x="1289.6206665039" y="853.0479125977" type="line"/>
			<point x="1513.2280883789" y="1500" type="line"/>
			<point x="2035.3450927734" y="1500" type="line"/>
			<point x="2035.3450927734" y="1384.3588867188" type="line"/>
			<point x="1826.3460693359" y="1350.3588867188" type="line"/>
			<point x="1824.3460693359" y="751" type="line"/>
			<point x="1826.3460693359" y="136.0009765625" type="line"/>
			<point x="2035.3450927734" y="101.0009765625" type="line"/>
			<point x="2035.3450927734" y="0" type="line"/>
			<point x="1438.9102783203" y="2" type="line"/>
			<point x="1438.9102783203" y="103.0009765625" type="line"/>
			<point x="1646.4860839844" y="136.0009765625" type="line"/>
			<point x="1648.4860839844" y="751" type="line"/>
			<point x="1642.8731689453" y="1323" type="line"/>
			<point x="1643.4860839844" y="1437" type="line"/>
			<point x="1643.4860839844" y="1437" type="line"/>
			<point x="1608.2819213867" y="1314.3184204102" type="line"/>
			<point x="1414.1472167969" y="795.1506347656" type="line"/>
			<point x="1137.4757080078" y="2.5582275391" type="line"/>
			<point x="983.6005249023" y="2.5582275391" type="line"/>
			<point x="737.3219604492" y="734.4951171875" type="line"/>
			<point x="515.4957885742" y="1317.990234375" type="line"/>
			<point x="467.5153198242" y="1445" type="line"/>
			<point x="467.5153198242" y="1445" type="line"/>
			<point x="466.5153198242" y="1323" type="line"/>
			<point x="462.5153198242" y="747" type="line"/>
			<point x="465.5153198242" y="136.0009765625" type="line"/>
			<point x="681.7066040039" y="103.0009765625" type="line"/>
			<point x="681.7066040039" y="2" type="line"/>
		</contour>
	</outline>
	<anchor name="bottom" x="1025" y="0"/>
	<anchor name="top" x="1058" y="1500"/>
</glyph>
<glyph name="N" format="2">
	<unicode hex="004E"/>
	<advance width="1589"/>
	<outline>
		<contour>
			<point x="80.9995117188" y="0" type="line"/>
			<point x="80.9995117188" y="101.0009765625" type="line"/>
			<point x="305.9985351562" y="136.0009765625" type="line"/>
			<point x="309.9985351562" y="753" type="line"/>
			<point x="307.9985351562" y="1350.3588867188" type="line"/>
			<point x="80.9995117188" y="1384.3588867188" type="line"/>
			<point x="80.9995117188" y="1500" type="line"/>
			<point x="558.1428833008" y="1500" type="line"/>
			<point x="911.873840332" y="862.0631103516" type="line"/>
			<point x="1113.3687133789" y="454.8400878906" type="line"/>
			<point x="1163.253112793" y="357.2492675781" type="line"/>
			<point x="1163.253112793" y="357.2492675781" type="line"/>
			<point x="1161.3744506836" y="511.2492675781" type="line"/>
			<point x="1160.521484375" y="756" type="line"/>
			<point x="1154.521484375" y="1350.3588867188" type="line"/>
			<point x="893.1379394531" y="1384.3588867188" type="line"/>
			<point x="893.1379394531" y="1500" type="line"/>
			<point x="1527.9404296875" y="1500" type="line"/>
			<point x="1527.9404296875" y="1384.3588867188" type="line"/>
			<point x="1296.94140625" y="1350.3588867188" type="line"/>
			<point x="1292.94140625" y="753" type="line"/>
			<point x="1292.94140625" y="0" type="line"/>
			<point x="1143.548034668" y="0" type="line"/>
			<point x="742.9945678711" y="787.2618408203" type="line"/>
			<point x="505.1584472656" y="1239.4110717773" type="line"/>
			<point x="441.9002685547" y="1348.2543334961" type="line"/>
			<point x="441.9002685547" y="1348.161315918" type="line"/>
			<point x="445.0313720703" y="1227.161315918" type="line"/>
			<point x="443.0313720703" y="741" type="line"/>
			<point x="450.0313720703" y="136.0009765625" type="line"/>
			<point x="669.22265625" y="101.0009765625" type="line"/>
			<point x="669.22265625" y="0" type="line"/>
		</contour>
	</outline>
	<anchor name="bottom" x="800" y="0"/>
	<anchor name="top" x="800" y="1500"/>
	<anchor name="engtail" x="1324" y="0"/>
	<anchor name="liga" x="1600" y="0"/>
</glyph>
<glyph name="R" format="2">
	<unicode hex="0052"/>
	<advance width="1432"/>
	<outline>
		<contour>
			<point x="80.9995117188" y="0" type="line"/>
			<point x="80.9995117188" y="101.0009765625" type="line"/>
			<point x="289.9985351562" y="137.0009765625" type="line"/>
			<point x="291.9985351562" y="813" type="line"/>
			<point x="289.9985351562" y="1350.3588867188" type="line"/>
			<point x="80.9995117188" y="1384.3588867188" type="line"/>
			<point x="80.9995117188" y="1500" type="line"/>
			<point x="799.4803624307" y="1500" type="line" smooth="yes"/>
			<point x="1000.9239620086" y="1500"/>
			<point x="1238.7034971176" y="1290"/>
			<point x="1238.7034971176" y="1108" type="qcurve" smooth="yes"/>
			<point x="1238.7034971176" y="942"/>
			<point x="1015.6121432397" y="695.8708496094"/>
			<point x="852.4420323526" y="695.8708496094" type="qcurve" smooth="yes"/>
			<point x="801.1025666268" y="695.8708496094"/>
			<point x="432.6404418945" y="705.0966796875"/>
			<point x="396.9052734375" y="712.3225097656" type="qcurve"/>
			<point x="398.9052734375" y="814.6455688477" type="line"/>
			<point x="807.5868372763" y="811.6455688477" type="line" smooth="yes"/>
			<point x="933.7797044324" y="811.6455688477"/>
			<point x="1061.2558022776" y="998.7611694336"/>
			<point x="1061.2558022776" y="1117" type="qcurve" smooth="yes"/>
			<point x="1061.2558022776" y="1259.996887207"/>
			<point x="939.3686661259" y="1368.483215332"/>
			<point x="825.8761813257" y="1368.483215332" type="qcurve" smooth="yes"/>
			<point x="496.8585205078" y="1368.483215332" type="line"/>
			<point x="465.8585205078" y="1345.483215332" type="line"/>
			<point x="460.8585205078" y="779" type="line"/>
			<point x="462.8585205078" y="137.0009765625" type="line"/>
			<point x="682.0113525391" y="101.0009765625" type="line"/>
			<point x="682.0113525391" y="0" type="line"/>
		</contour>
		<contour>
			<point x="766.7132962134" y="747.7420654297" type="line"/>
			<point x="931.1537022745" y="783.8708791425" type="line"/>
			<point x="1224.2693284558" y="288" type="line" smooth="yes"/>
			<point x="1330.2930219097" y="104.4246274887"/>
			<point x="1373.2708484281" y="108.8573608398"/>
			<point x="1498.2441150296" y="100.0009765625" type="qcurve"/>
			<point x="1498.2441150296" y="-1" type="line"/>
			<point x="1212.1945840159" y="-1" type="line"/>
			<point x="1182.1945840159" y="29" type="line"/>
		</contour>
	</outline>
	<anchor name="bottom" x="803" y="0"/>
	<anchor name="top" x="630" y="1500"/>
</glyph>
<glyph name="S" format="2">
	<unicode hex="0053"/>
	<advance width="1223"/>
	<outline>
		<contour>
			<point x="83.9991455078" y="1" type="line"/>
			<point x="83.9991455078" y="524.9946899414" type="line"/>
			<point x="190.9285888672" y="524.9946899414" type="line"/>
			<point x="263.1014089277" y="352.3555297852" type="line" smooth="yes"/>
			<point x="319.8191508632" y="232.5087555917"/>
			<point x="495.0727519374" y="99.3555297852"/>
			<point x="650.7799269153" y="99.3555297852" type="qcurve" smooth="yes"/>
			<point x="842.8663487589" y="99.3555297852"/>
			<point x="979.2653296686" y="242.0495822046"/>
			<point x="979.6728614069" y="340.2958984375" type="qcurve" smooth="yes"/>
			<point x="980.0803931452" y="447.0693201864"/>
			<point x="850.2492321383" y="606.7613938855"/>
			<point x="567.2208744172" y="712.3922040386" type="qcurve" smooth="yes"/>
			<point x="316.2563890027" y="812.1821741904"/>
			<point x="119.3823537519" y="1007.7183129095"/>
			<point x="119.3823537519" y="1177.4633316532" type="qcurve" smooth="yes"/>
			<point x="119.3823537519" y="1337.6821761593"/>
			<point x="374.1251712922" y="1518"/>
			<point x="577.0464575983" y="1518" type="qcurve" smooth="yes"/>
			<point x="704.5835216891" y="1518"/>
			<point x="828.6176068706" y="1462.0465087891"/>
			<point x="893.2563279675" y="1410" type="qcurve"/>
			<point x="943.1874803113" y="1487" type="line"/>
			<point x="1039.5038235572" y="1487" type="line"/>
			<point x="1039.5038235572" y="994.3277587891" type="line"/>
			<point x="934.2749732233" y="994.3277587891" type="line"/>
			<point x="852.0933956023" y="1183.3863525391" type="line" smooth="yes"/>
			<point x="804.4686712449" y="1292.3462544102"/>
			<point x="671.3494164251" y="1385.3863525391"/>
			<point x="575.917445029" y="1385.3863525391" type="qcurve" smooth="yes"/>
			<point x="401.9601164787" y="1385.3863525391"/>
			<point x="286.1046142578" y="1263.3677978516"/>
			<point x="286.5121459961" y="1203.2729826896" type="qcurve" smooth="yes"/>
			<point x="286.9196777344" y="1101.1994077621"/>
			<point x="411.5805388419" y="978.2573911605"/>
			<point x="713.5230122228" y="856.8971912015" type="qcurve" smooth="yes"/>
			<point x="914.158378355" y="757.5446226059"/>
			<point x="1157.0892137097" y="553.6445903163"/>
			<point x="1157.0892137097" y="394.5210905997" type="qcurve" smooth="yes"/>
			<point x="1157.0892137097" y="218.1289101878"/>
			<point x="874.2879618983" y="-32"/>
			<point x="640.0886506112" y="-32" type="qcurve" smooth="yes"/>
			<point x="525.2470900012" y="-32"/>
			<point x="329.0999677105" y="53"/>
			<point x="269.8851672757" y="123" type="qcurve"/>
			<point x="182.6925048828" y="1" type="line"/>
		</contour>
	</outline>
	<anchor name="bottom" x="599" y="0"/>
	<anchor name="top" x="514" y="1500"/>
</glyph>
<glyph name="U" format="2">
	<unicode hex="0055"/>
	<advance width="1838"/>
	<outline>
		<contour>
			<point x="65.1918945312" y="1384.3588867188" type="line"/>
			<point x="65.1918945312" y="1500" type="line"/>
			<point x="667.7454223633" y="1500" type="line"/>
			<point x="667.7454223633" y="1384.3588867188" type="line"/>
			<point x="464.765625" y="1350.3588867188" type="line"/>
			<point x="459.765625" y="839.5480957031" type="line"/>
			<point x="463.0911865234" y="479.6016235352" type="line" smooth="yes"/>
			<point x="464.4621582031" y="231.6016235352"/>
			<point x="675.2621459961" y="117.9684448242"/>
			<point x="890.8359375" y="117.9684448242" type="qcurve" smooth="yes"/>
			<point x="1148.9811401367" y="117.9684448242"/>
			<point x="1401.1762084961" y="238.5693359375"/>
			<point x="1400.3060302734" y="504.5693359375" type="qcurve" smooth="yes"/>
			<point x="1401.6764624811" y="839.5480957031" type="line"/>
			<point x="1398.8786109186" y="1350.3588867188" type="line"/>
			<point x="1136.687326739" y="1384.3588867188" type="line"/>
			<point x="1136.687326739" y="1500" type="line"/>
			<point x="1788.2977393366" y="1500" type="line"/>
			<point x="1788.2977393366" y="1384.3588867188" type="line"/>
			<point x="1542.2987158991" y="1350.3588867188" type="line"/>
			<point x="1540.639292071" y="839.5480957031" type="line"/>
			<point x="1541.5325927734" y="453.901184082" type="line" smooth="yes"/>
			<point x="1541.368347168" y="208.4317626953"/>
			<point x="1249.0880737305" y="-25"/>
			<point x="940.3646240234" y="-25" type="qcurve" smooth="yes"/>
			<point x="625.246887207" y="-25"/>
			<point x="282.7672119141" y="201.8016357422"/>
			<point x="283.9986572266" y="445.7162475586" type="qcurve" smooth="yes"/>
			<point x="285.9986572266" y="839.5480957031" type="line"/>
			<point x="283.9986572266" y="1350.3588867188" type="line"/>
		</contour>
	</outline>
	<anchor name="bottom" x="832" y="0"/>
	<anchor name="ogonek" x="1042" y="0"/>
	<anchor name="top" x="832" y="1500"/>
	<anchor name="topright" x="1590" y="1500"/>
</glyph>
<glyph name="V" format="2">
	<unicode hex="0056"/>
	<advance width="1526"/>
	<outline>
		<contour>
			<point x="-39.2329101562" y="1384.3588867188" type="line"/>
			<point x="-39.2329101562" y="1500" type="line"/>
			<point x="513.2426147461" y="1500" type="line"/>
			<point x="513.2426147461" y="1384.3588867188" type="line"/>
			<point x="325.0126342773" y="1350.3588867188" type="line"/>
			<point x="515.7321777344" y="866.7131958008" type="line"/>
			<point x="731.0814819336" y="352.8690185547" type="line"/>
			<point x="763.6403198242" y="242.7746582031" type="line"/>
			<point x="763.6403198242" y="242.7746582031" type="line"/>
			<point x="795.4896850586" y="350.4106445312" type="line"/>
			<point x="951.655456543" y="792.9884643555" type="line"/>
			<point x="1161.1213378906" y="1348.9868164062" type="line"/>
			<point x="933.5260620117" y="1383.9868164062" type="line"/>
			<point x="931.5260620117" y="1499.6279296875" type="line"/>
			<point x="1558.1469116211" y="1500" type="line"/>
			<point x="1559.1469116211" y="1384.3588867188" type="line"/>
			<point x="1320.7246704102" y="1352.3588867188" type="line"/>
			<point x="1091.2776489258" y="764.3072509766" type="line"/>
			<point x="811.0147094727" y="-6" type="line"/>
			<point x="684.9510498047" y="-6" type="line"/>
			<point x="360.8376464844" y="817.2283935547" type="line"/>
			<point x="138.9970703125" y="1350.3588867188" type="line"/>
		</contour>
	</outline>
	<anchor name="bottom" x="723" y="0"/>
	<anchor name="top" x="733" y="1500"/>
</glyph>
<glyph name="W" format="2">
	<unicode hex="0057"/>
	<advance width="2087"/>
	<outline>
		<contour>
			<point x="610.2884521484" y="-6" type="line"/>
			<point x="338.1287841797" y="800.0194091797" type="line"/>
			<point x="159.9970703125" y="1352.3588867188" type="line"/>
			<point x="-38.2329101562" y="1386.3588867188" type="line"/>
			<point x="-38.2329101562" y="1500" type="line"/>
			<point x="575.4017333984" y="1500" type="line"/>
			<point x="575.4017333984" y="1386.3588867188" type="line"/>
			<point x="351.7872314453" y="1352.3588867188" type="line"/>
			<point x="507.7875976562" y="837.4914550781" type="line"/>
			<point x="679.7100830078" y="365.1345214844" type="line"/>
			<point x="715.6772460938" y="256.3515014648" type="line"/>
			<point x="715.6772460938" y="256.3515014648" type="line"/>
			<point x="743.1160888672" y="363.5291137695" type="line"/>
			<point x="868.1205444336" y="806.3262329102" type="line"/>
			<point x="954.7510375977" y="1101.5477294922" type="line"/>
			<point x="853.3253173828" y="1356.4389648438" type="line"/>
			<point x="655.0953369141" y="1390.4389648438" type="line"/>
			<point x="655.0953369141" y="1500" type="line"/>
			<point x="1249.6076660156" y="1500" type="line"/>
			<point x="1249.6076660156" y="1390.4389648438" type="line"/>
			<point x="1042.3776855469" y="1357.4389648438" type="line"/>
			<point x="1223.0480957031" y="784.4007568359" type="line"/>
			<point x="1346.2869262695" y="362.354675293" type="line"/>
			<point x="1369.1912231445" y="261.5127563477" type="line"/>
			<point x="1369.1912231445" y="261.5127563477" type="line"/>
			<point x="1391.5844726562" y="359.4503173828" type="line"/>
			<point x="1540.0258178711" y="822.6411743164" type="line"/>
			<point x="1687.6978759766" y="1347.3588867188" type="line"/>
			<point x="1425.9103393555" y="1386.3588867188" type="line"/>
			<point x="1425.9103393555" y="1500" type="line"/>
			<point x="2127.3529052734" y="1500" type="line"/>
			<point x="2127.3529052734" y="1386.3588867188" type="line"/>
			<point x="1849.7384033203" y="1351.3588867188" type="line"/>
			<point x="1674.1015014648" y="786.4200439453" type="line"/>
			<point x="1423.0486450195" y="-6" type="line"/>
			<point x="1264.494140625" y="-6" type="line"/>
			<point x="1095.6420898438" y="651.9060668945" type="line"/>
			<point x="1013.9339599609" y="900.5420532227" type="line"/>
			<point x="1013.9339599609" y="900.5420532227" type="line"/>
			<point x="945.2267456055" y="688.9317626953" type="line"/>
			<point x="775.0015869141" y="-6" type="line"/>
		</contour>
	</outline>
	<anchor name="bottom" x="1051" y="0"/>
	<anchor name="top" x="1051" y="1500"/>
</glyph>
<glyph name="X" format="2">
	<unicode hex="0058"/>
	<advance width="1438"/>
	<outline>
		<contour>
			<point x="-82.7412109375" y="0" type="line"/>
			<point x="-82.7412109375" y="101.0009765625" type="line"/>
			<point x="186.4887695312" y="133.0009765625" type="line"/>
			<point x="626.7803344727" y="778.8211669922" type="line"/>
			<point x="240.0225219727" y="1353.3588867188" type="line"/>
			<point x="37.9848022461" y="1384.3588867188" type="line"/>
			<point x="37.9848022461" y="1500" type="line"/>
			<point x="704.2783203125" y="1500" type="line"/>
			<point x="704.2783203125" y="1384.3588867188" type="line"/>
			<point x="485.9522094727" y="1352.3588867188" type="line"/>
			<point x="718.2847900391" y="1025.4952392578" type="line"/>
			<point x="757.1296386719" y="955.1446533203" type="line"/>
			<point x="757.1296386719" y="955.1446533203" type="line"/>
			<point x="794.0493164062" y="1026.8406982422" type="line"/>
			<point x="1031.860168457" y="1356.3588867188" type="line"/>
			<point x="776.4571533203" y="1384.3588867188" type="line"/>
			<point x="776.4571533203" y="1500" type="line"/>
			<point x="1499.1864624023" y="1500" type="line"/>
			<point x="1499.1864624023" y="1384.3588867188" type="line"/>
			<point x="1230.7642211914" y="1355.3588867188" type="line"/>
			<point x="842.1096191406" y="819.8480834961" type="line"/>
			<point x="1309.766784668" y="136.0009765625" type="line"/>
			<point x="1525.9967651367" y="101.0009765625" type="line"/>
			<point x="1525.9967651367" y="0" type="line"/>
			<point x="820.41796875" y="0" type="line"/>
			<point x="820.41796875" y="101.0009765625" type="line"/>
			<point x="1054.7440795898" y="136.0009765625" type="line"/>
			<point x="752.7803344727" y="564.6154785156" type="line"/>
			<point x="710.9613647461" y="650.6579589844" type="line"/>
			<point x="710.9613647461" y="650.6579589844" type="line"/>
			<point x="667.9829711914" y="566.3081054688" type="line"/>
			<point x="391.3928222656" y="136.0009765625" type="line"/>
			<point x="655.7958374023" y="101.0009765625" type="line"/>
			<point x="655.7958374023" y="0" type="line"/>
		</contour>
	</outline>
	<anchor name="bottom" x="661" y="0"/>
	<anchor name="top" x="673" y="1500"/>
	<anchor name="cy_descender" x="1386" y="100"/>
	<anchor name="center" x="663" y="811"/>
</glyph>
<glyph name="Y" format="2">
	<unicode hex="0059"/>
	<advance width="1341"/>
	<outline>
		<contour>
			<point x="361.1439208984" y="0" type="line"/>
			<point x="361.1439208984" y="103.0009765625" type="line"/>
			<point x="538.3736572266" y="136.0009765625" type="line"/>
			<point x="540.4666748047" y="673.5705566406" type="line"/>
			<point x="358.4265136719" y="1006.8223876953" type="line"/>
			<point x="117.9970703125" y="1358.3588867188" type="line"/>
			<point x="-56.0791015625" y="1384.3588867188" type="line"/>
			<point x="-56.0791015625" y="1500" type="line"/>
			<point x="523.6817016602" y="1500" type="line"/>
			<point x="523.6817016602" y="1384.3588867188" type="line"/>
			<point x="340.6632080078" y="1355.3588867188" type="line"/>
			<point x="528.5949707031" y="1056.271484375" type="line"/>
			<point x="664.1869506836" y="791.4654541016" type="line"/>
			<point x="664.1869506836" y="791.4654541016" type="line"/>
			<point x="821.5494384766" y="1082.850402832" type="line"/>
			<point x="1006.1867675781" y="1357.3588867188" type="line"/>
			<point x="765.5914916992" y="1384.3588867188" type="line"/>
			<point x="765.5914916992" y="1500" type="line"/>
			<point x="1388.0026855469" y="1500" type="line"/>
			<point x="1388.0026855469" y="1384.3588867188" type="line"/>
			<point x="1152.7727050781" y="1357.3588867188" type="line"/>
			<point x="928.5863647461" y="1025.5582275391" type="line"/>
			<point x="713.0866088867" y="662.1520385742" type="line"/>
			<point x="714.3731689453" y="136.0009765625" type="line"/>
			<point x="889.564453125" y="103.0009765625" type="line"/>
			<point x="889.564453125" y="0" type="line"/>
		</contour>
	</outline>
	<anchor name="bottom" x="636" y="0"/>
	<anchor name="top" x="640" y="1500"/>
	<anchor name="tonos" x="-100" y="1500"/>
	<anchor name="center" x="636" y="582"/>
</glyph>
<glyph name="Z" format="2">
	<unicode hex="005A"/>
	<advance width="1132"/>
	<outline>
		<contour>
			<point x="92.4245605469" y="0" type="line"/>
			<point x="58.8760375977" y="92.4520263672" type="line"/>
			<point x="786.1825384324" y="1365.483215332" type="line"/>
			<point x="776.1825384324" y="1380.483215332" type="line"/>
			<point x="293.8563232422" y="1380.483215332" type="line"/>
			<point x="161.2371826172" y="1010.910949707" type="line"/>
			<point x="73.08984375" y="1010.910949707" type="line"/>
			<point x="73.08984375" y="1500" type="line"/>
			<point x="993.5947895665" y="1500" type="line"/>
			<point x="993.5947895665" y="1397.9027709961" type="line"/>
			<point x="274.8552442981" y="130.4522094727" type="line"/>
			<point x="279.8552442981" y="116.4522094727" type="line"/>
			<point x="834.8362426758" y="116.4522094727" type="line"/>
			<point x="971.5427876134" y="472.0957641602" type="line"/>
			<point x="1072.1259174962" y="472.0957641602" type="line"/>
			<point x="1027.0160542149" y="0" type="line"/>
		</contour>
	</outline>
	<anchor name="bottom" x="583" y="0"/>
	<anchor name="top" x="583" y="1500"/>
	<anchor name="_liga" x="0" y="0"/>
</glyph>
<glyph name="a" format="2">
	<unicode hex="0061"/>
	<advance width="1053"/>
	<outline>
		<contour>
			<point x="66.8598632812" y="224.8676757812" type="qcurve" smooth="yes"/>
			<point x="67.8598632812" y="358.8015136719"/>
			<point x="375.6774902344" y="561.7314453125"/>
			<point x="687.4796142578" y="607.0028076172" type="qcurve"/>
			<point x="689.4796142578" y="522.3482666016" type="line"/>
			<point x="466.3368530273" y="482.4844360352"/>
			<point x="249.8436279297" y="349.0712280273"/>
			<point x="249.8436279297" y="232.0038452148" type="qcurve" smooth="yes"/>
			<point x="249.8436279297" y="154.8494262695"/>
			<point x="308.4083862305" y="107.0373535156"/>
			<point x="415.2786254883" y="107.0373535156" type="qcurve" smooth="yes"/>
			<point x="471.7045288086" y="107.0373535156"/>
			<point x="640.6049804688" y="209.3786621094"/>
			<point x="650.4069824219" y="265.0129394531" type="qcurve"/>
			<point x="649.7155761719" y="528.7449951172" type="line" smooth="yes"/>
			<point x="649.7772827148" y="764.3837890625"/>
			<point x="565.6099853516" y="917.33984375"/>
			<point x="463.0308837891" y="917.33984375" type="qcurve" smooth="yes"/>
			<point x="387.1034545898" y="917.33984375"/>
			<point x="370.2252197266" y="903.266418457"/>
			<point x="343.8514404297" y="887.8461303711" type="qcurve"/>
			<point x="353.2211914062" y="883.4638671875"/>
			<point x="394.7391967773" y="832.8473510742"/>
			<point x="389.1094970703" y="790.2302856445" type="qcurve" smooth="yes"/>
			<point x="385.2067871094" y="746.4407958984"/>
			<point x="316.3319091797" y="690.7257080078"/>
			<point x="267.1104736328" y="690.7257080078" type="qcurve" smooth="yes"/>
			<point x="219.2418823242" y="690.7257080078"/>
			<point x="155.7301025391" y="744.3790893555"/>
			<point x="155.7301025391" y="807.341003418" type="qcurve" smooth="yes"/>
			<point x="155.7301025391" y="892.7112426758"/>
			<point x="309.4392089844" y="1031.3773193359"/>
			<point x="449.5051269531" y="1031.3773193359" type="qcurve" smooth="yes"/>
			<point x="628.5424804688" y="1031.3773193359"/>
			<point x="814.2183227539" y="849.1957397461"/>
			<point x="816.2183227539" y="665.8716430664" type="qcurve" smooth="yes"/>
			<point x="821.2183227539" y="116.0009765625" type="line"/>
			<point x="975.2192993164" y="81.0009765625" type="line"/>
			<point x="975.2192993164" y="0" type="line"/>
			<point x="711.6647338867" y="0" type="line"/>
			<point x="662.5177001953" y="29.6533813477" type="line"/>
			<point x="652.4686889648" y="148.6672973633" type="line"/>
			<point x="620.1204833984" y="86.5706176758"/>
			<point x="454.2276611328" y="-16"/>
			<point x="288.3430786133" y="-16" type="qcurve" smooth="yes"/>
			<point x="221.4334716797" y="-16"/>
			<point x="65.8598632812" y="102.5739135742"/>
		</contour>
	</outline>
	<anchor name="bottom" x="548" y="0"/>
	<anchor name="ogonek" x="878" y="0"/>
	<anchor name="top" x="514" y="1000"/>
</glyph>
<glyph name="b" format="2">
	<unicode hex="0062"/>
	<advance width="1248"/>
	<outline>
		<contour>
			<point x="229.4893188477" y="-2" type="line"/>
			<point x="235.1680908203" y="427" type="line"/>
			<point x="229.4893188477" y="1390.9659423828" type="line"/>
			<point x="76.2886352539" y="1430.9659423828" type="line"/>
			<point x="76.2886352539" y="1520.7670898438" type="line"/>
			<point x="360.0538330078" y="1536.0012207031" type="line"/>
			<point x="387.0538330078" y="1534.0012207031" type="line"/>
			<point x="409.7943115234" y="1502.0012207031" type="line"/>
			<point x="410.6708984375" y="869.2567138672" type="line"/>
			<point x="436.0586547852" y="916.270324707"/>
			<point x="589.2067871094" y="1026.3773193359"/>
			<point x="719.819152832" y="1026.3773193359" type="qcurve" smooth="yes"/>
			<point x="913.4404296875" y="1026.3773193359"/>
			<point x="1180.4430541992" y="755.9629516602"/>
			<point x="1180.4430541992" y="530.3754272461" type="qcurve" smooth="yes"/>
			<point x="1180.4430541992" y="282.1478271484"/>
			<point x="904.1436157227" y="-28"/>
			<point x="708.0999145508" y="-28" type="qcurve" smooth="yes"/>
			<point x="584.8233032227" y="-28"/>
			<point x="432.0327758789" y="60.3275756836"/>
			<point x="397.5236206055" y="97.4965209961" type="qcurve"/>
			<point x="291.4144897461" y="-2" type="line"/>
		</contour>
		<contour>
			<point x="410.0538330078" y="397.7217407227" type="line"/>
			<point x="410.2020263672" y="287.332824707" type="line"/>
			<point x="435.5379638672" y="205.4125976562"/>
			<point x="586.9864501953" y="85.7041015625"/>
			<point x="687.3264770508" y="85.7041015625" type="qcurve" smooth="yes"/>
			<point x="826.7788085938" y="85.7041015625"/>
			<point x="1003.5209960938" y="342.4138793945"/>
			<point x="1003.5209960938" y="505.188659668" type="qcurve" smooth="yes"/>
			<point x="1003.5209960938" y="675.7600708008"/>
			<point x="818.6982421875" y="908.1546630859"/>
			<point x="700.4682006836" y="908.1546630859" type="qcurve" smooth="yes"/>
			<point x="595.850402832" y="908.1546630859"/>
			<point x="453.5698852539" y="806.4921264648"/>
			<point x="404.0538330078" y="735.321472168" type="qcurve"/>
		</contour>
	</outline>
	<anchor name="bottom" x="571" y="0"/>
	<anchor name="top" x="571" y="1533"/>
</glyph>
<glyph name="c" format="2">
	<unicode hex="0063"/>
	<advance width="896"/>
	<outline>
		<contour>
			<point x="64.9259643555" y="480.3618164062" type="qcurve" smooth="yes"/>
			<point x="64.9259643555" y="714.8591918945"/>
			<point x="312.7592163086" y="1029.0037841797"/>
			<point x="501.2271118164" y="1029.0037841797" type="qcurve" smooth="yes"/>
			<point x="584.4784545898" y="1029.0037841797"/>
			<point x="674.8643798828" y="970.5594482422"/>
			<point x="705.3450927734" y="926.5965576172" type="qcurve"/>
			<point x="747.6934814453" y="1017.7670898438" type="line"/>
			<point x="838.1597900391" y="1017.7670898438" type="line"/>
			<point x="838.1597900391" y="652.6989746094" type="line"/>
			<point x="749.0848388672" y="652.6989746094" type="line"/>
			<point x="714.0848388672" y="750.2255859375" type="line" smooth="yes"/>
			<point x="686.4552001953" y="841.1145019531"/>
			<point x="577.6304931641" y="925.2255859375"/>
			<point x="527.568359375" y="925.2255859375" type="qcurve" smooth="yes"/>
			<point x="382.116027832" y="925.2255859375"/>
			<point x="233.4777832031" y="668.575012207"/>
			<point x="233.4777832031" y="489.0018920898" type="qcurve" smooth="yes"/>
			<point x="233.4777832031" y="325.2987670898"/>
			<point x="405.3651733398" y="90.9262695312"/>
			<point x="545.4841308594" y="90.9262695312" type="qcurve" smooth="yes"/>
			<point x="630.947265625" y="90.9262695312"/>
			<point x="803.6239013672" y="198.3707275391"/>
			<point x="837.4647216797" y="264.3706054688" type="qcurve"/>
			<point x="891.7517089844" y="189" type="line"/>
			<point x="849.1795654297" y="108"/>
			<point x="653.4488525391" y="-30"/>
			<point x="513.8253173828" y="-30" type="qcurve" smooth="yes"/>
			<point x="337.1477050781" y="-30"/>
			<point x="64.9259643555" y="252.8812866211"/>
		</contour>
	</outline>
	<anchor name="bottom" x="563" y="0"/>
	<anchor name="top" x="534" y="1000"/>
</glyph>
<glyph name="d" format="2">
	<unicode hex="0064"/>
	<advance width="1223"/>
	<outline>
		<contour>
			<point x="63.2289428711" y="484.5699462891" type="qcurve" smooth="yes"/>
			<point x="63.2289428711" y="734.377746582"/>
			<point x="318.4241943359" y="1028.3773193359"/>
			<point x="536.1630859375" y="1028.3773193359" type="qcurve" smooth="yes"/>
			<point x="602.6755371094" y="1028.3773193359"/>
			<point x="816.7177734375" y="970.5133666992"/>
			<point x="825.6571655273" y="949.270324707" type="qcurve"/>
			<point x="825.66015625" y="1393.2000732422" type="line"/>
			<point x="638.6586914062" y="1432.2000732422" type="line"/>
			<point x="638.6586914062" y="1522.0012207031" type="line"/>
			<point x="953.7981567383" y="1534.0012207031" type="line"/>
			<point x="986.6827392578" y="1533.0012207031" type="line"/>
			<point x="1007.287109375" y="1499.0012207031" type="line"/>
			<point x="1001.9785766602" y="533.0740966797" type="line"/>
			<point x="1010.0544433594" y="116.0009765625" type="line"/>
			<point x="1177.0554199219" y="81.0009765625" type="line"/>
			<point x="1177.0554199219" y="0" type="line"/>
			<point x="870.4475708008" y="0" type="line"/>
			<point x="852.0178833008" y="17" type="line"/>
			<point x="838.3182373047" y="152.1206054688" type="line"/>
			<point x="809.6085205078" y="93.7559204102"/>
			<point x="607.3666381836" y="-19"/>
			<point x="485.0788574219" y="-19" type="qcurve" smooth="yes"/>
			<point x="319.6572265625" y="-19"/>
			<point x="63.2289428711" y="253.3430175781"/>
		</contour>
		<contour>
			<point x="231.1510009766" y="498.188659668" type="qcurve" smooth="yes"/>
			<point x="231.1510009766" y="290.087097168"/>
			<point x="387.0341796875" y="103.8153076172"/>
			<point x="501.3959350586" y="103.0004882812" type="qcurve" smooth="yes"/>
			<point x="625.7430419922" y="102.1856689453"/>
			<point x="803.5468139648" y="208.9504394531"/>
			<point x="831.9345703125" y="285.1299438477" type="qcurve"/>
			<point x="832.3048095703" y="572.282043457" type="line"/>
			<point x="829.3048095703" y="759.4340209961" type="line"/>
			<point x="806.0954589844" y="832.1691894531"/>
			<point x="645.3375244141" y="909.7102050781"/>
			<point x="556.8161010742" y="909.7102050781" type="qcurve" smooth="yes"/>
			<point x="397.2731933594" y="909.7102050781"/>
			<point x="231.1510009766" y="665.133972168"/>
		</contour>
	</outline>
	<anchor name="bottom" x="604" y="0"/>
	<anchor name="center" x="876" y="1202"/>
	<anchor name="top" x="604" y="1534"/>
	<anchor name="topright" x="961" y="1000"/>
	<anchor name="liga" x="1207" y="0"/>
</glyph>
<glyph name="e" format="2">
	<unicode hex="0065"/>
	<advance width="941"/>
	<outline>
		<contour>
			<point x="65.1685180664" y="496.0343017578" type="qcurve" smooth="yes"/>
			<point x="65.1685180664" y="753.6691894531"/>
			<point x="334.2718505859" y="1030.9104003906"/>
			<point x="497.728515625" y="1030.9104003906" type="qcurve" smooth="yes"/>
			<point x="676.421875" y="1030.9104003906"/>
			<point x="917.4509277344" y="786.6030273438"/>
			<point x="926.9072875977" y="575.4688110352" type="qcurve"/>
			<point x="926.9072875977" y="527.0983276367" type="line"/>
			<point x="188.2774658203" y="527.0983276367" type="line"/>
			<point x="187.9072265625" y="620.9505004883" type="line"/>
			<point x="745.1577758789" y="620.9505004883" type="line"/>
			<point x="733.6782836914" y="696.4333496094"/>
			<point x="650.5169067383" y="918.1691894531"/>
			<point x="499.0570678711" y="918.1691894531" type="qcurve" smooth="yes"/>
			<point x="369.0656738281" y="918.1691894531"/>
			<point x="234.090637207" y="705.3518066406"/>
			<point x="234.905456543" y="505.2684326172" type="qcurve" smooth="yes"/>
			<point x="235.7202758789" y="315.4077148438"/>
			<point x="414.4467163086" y="77.9632568359"/>
			<point x="536.4010009766" y="77.9632568359" type="qcurve" smooth="yes"/>
			<point x="649.3320922852" y="77.9632568359"/>
			<point x="808.0556030273" y="179.0743408203"/>
			<point x="843.1875610352" y="244.5557861328" type="qcurve"/>
			<point x="900.2247924805" y="176" type="line"/>
			<point x="853.0495605469" y="99"/>
			<point x="677.9763793945" y="-32"/>
			<point x="537.1936645508" y="-32" type="qcurve" smooth="yes"/>
			<point x="316.8264770508" y="-32"/>
			<point x="65.1685180664" y="241.8803710938"/>
		</contour>
	</outline>
	<anchor name="bottom" x="578" y="0"/>
	<anchor name="ogonek" x="744" y="0"/>
	<anchor name="top" x="539" y="1000"/>
</glyph>
<glyph name="f" format="2">
	<unicode hex="0066"/>
	<advance width="649"/>
	<outline>
		<contour>
			<point x="78.5795288086" y="0" type="line"/>
			<point x="78.5795288086" y="81.0009765625" type="line"/>
			<point x="227.2601928711" y="116.0009765625" type="line"/>
			<point x="238.2601928711" y="477" type="line"/>
			<point x="238.2601928711" y="857.3111572266" type="line"/>
			<point x="97.4877319336" y="864.3111572266" type="line"/>
			<point x="97.4877319336" y="975.0893554688" type="line"/>
			<point x="239.2601928711" y="983.0893554688" type="line"/>
			<point x="237.9255371094" y="1260.3707275391" type="line" smooth="yes"/>
			<point x="237.9827880859" y="1392.3725585938"/>
			<point x="377.4512329102" y="1512.8442382812"/>
			<point x="482.6045532227" y="1512.8442382812" type="qcurve" smooth="yes"/>
			<point x="535.7048950195" y="1512.8442382812"/>
			<point x="627.7389526367" y="1488.4703369141"/>
			<point x="645.3126220703" y="1479.7842407227" type="qcurve" smooth="yes"/>
			<point x="665.326965332" y="1467.8241577148" type="line"/>
			<point x="645.5383911133" y="1355.7232666016" type="line"/>
			<point x="636.0169067383" y="1363.3634033203" type="line" smooth="yes"/>
			<point x="612.2653198242" y="1374.1651611328"/>
			<point x="557.2354736328" y="1388.6434326172"/>
			<point x="532.6970825195" y="1388.6434326172" type="qcurve" smooth="yes"/>
			<point x="472.6807250977" y="1388.6434326172"/>
			<point x="402.4744873047" y="1350.6195068359"/>
			<point x="401.7630004883" y="1332.6018676758" type="qcurve" smooth="yes"/>
			<point x="399.9481201172" y="984.0893554688" type="line"/>
			<point x="594.8197631836" y="984.0893554688" type="line"/>
			<point x="594.8197631836" y="865.3111572266" type="line"/>
			<point x="400.9481201172" y="863.3111572266" type="line"/>
			<point x="398.9481201172" y="477" type="line"/>
			<point x="404.9481201172" y="116.0009765625" type="line"/>
			<point x="589.5089111328" y="81.0009765625" type="line"/>
			<point x="589.5089111328" y="0" type="line"/>
		</contour>
	</outline>
	<anchor name="bottom" x="314" y="0"/>
	<anchor name="top" x="314" y="1536"/>
</glyph>
<glyph name="g" format="2">
	<unicode hex="0067"/>
	<advance width="1118"/>
	<outline>
		<contour>
			<point x="125.7565917969" y="-247.2064819336" type="qcurve" smooth="yes"/>
			<point x="125.7565917969" y="-156.463684082"/>
			<point x="245.9633789062" y="4.948425293"/>
			<point x="339.8003540039" y="50.1527709961" type="qcurve"/>
			<point x="470.9439697266" y="25.8875732422" type="line"/>
			<point x="308.5885620117" y="-77.8803100586"/>
			<point x="237.0996704102" y="-203.6742553711"/>
			<point x="237.0996704102" y="-256.1062011719" type="qcurve" smooth="yes"/>
			<point x="237.0996704102" y="-349.5167236328"/>
			<point x="436.2360229492" y="-413.3491210938"/>
			<point x="622.5021362305" y="-413.3491210938" type="qcurve" smooth="yes"/>
			<point x="733.3970336914" y="-413.3491210938"/>
			<point x="891.5375366211" y="-318.0950927734"/>
			<point x="891.5375366211" y="-244.6727294922" type="qcurve" smooth="yes"/>
			<point x="891.5375366211" y="-157.0637207031"/>
			<point x="790.8662109375" y="-79.0841674805"/>
			<point x="592.3764648438" y="-54.8372802734" type="qcurve" smooth="yes"/>
			<point x="431.6821289062" y="-32.0233764648"/>
			<point x="145.9841918945" y="10.6086425781"/>
			<point x="145.9841918945" y="113.9449462891" type="qcurve" smooth="yes"/>
			<point x="145.9841918945" y="191.1999866117"/>
			<point x="295.9827624906" y="327.4579585906"/>
			<point x="366.3498535156" y="361.9373168945" type="qcurve"/>
			<point x="418.5825805664" y="303.9108276367" type="line"/>
			<point x="363.1951136435" y="289.5260836694"/>
			<point x="253.2292480469" y="219.0378516413"/>
			<point x="253.2292480469" y="189.6281738281" type="qcurve" smooth="yes"/>
			<point x="253.2292480469" y="141.7807006836"/>
			<point x="416.2075805664" y="113.639465332"/>
			<point x="636.9603271484" y="87.110168457" type="qcurve" smooth="yes"/>
			<point x="837.8149414062" y="56.1150512695"/>
			<point x="1020.4740600586" y="-33.4071044922"/>
			<point x="1020.4740600586" y="-167.2499389648" type="qcurve" smooth="yes"/>
			<point x="1020.4740600586" y="-310.1975097656"/>
			<point x="782.0662231445" y="-510.4235839844"/>
			<point x="602.4818115234" y="-510.4235839844" type="qcurve" smooth="yes"/>
			<point x="422.0516357422" y="-510.4235839844"/>
			<point x="125.7565917969" y="-366.0381469727"/>
		</contour>
		<contour>
			<point x="165.0015869141" y="644.3713989258" type="qcurve" smooth="yes"/>
			<point x="165.0015869141" y="815.6110839844"/>
			<point x="381.474609375" y="1022.9104003906"/>
			<point x="560.1538696289" y="1022.9104003906" type="qcurve" smooth="yes"/>
			<point x="736.1275024414" y="1022.9104003906"/>
			<point x="950.5632324219" y="824.6110839844"/>
			<point x="950.5632324219" y="650.4117431641" type="qcurve" smooth="yes"/>
			<point x="951.5632324219" y="482.2210083008"/>
			<point x="728.6002807617" y="251.7707519531"/>
			<point x="565.6676635742" y="251.7707519531" type="qcurve" smooth="yes"/>
			<point x="384.2932128906" y="251.7707519531"/>
			<point x="165.0015869141" y="464.4678955078"/>
		</contour>
		<contour>
			<point x="342.5534057617" y="648.6381225586" type="qcurve" smooth="yes"/>
			<point x="342.5534057617" y="522.3740844727"/>
			<point x="451.9216918945" y="359.1785888672"/>
			<point x="572.283996582" y="359.1785888672" type="qcurve" smooth="yes"/>
			<point x="660.6463012695" y="359.1785888672"/>
			<point x="775.8880004883" y="522.9323120117"/>
			<point x="775.8880004883" y="648.5667114258" type="qcurve" smooth="yes"/>
			<point x="775.8880004883" y="758.8307495117"/>
			<point x="659.3860473633" y="913.7247314453"/>
			<point x="554.0237426758" y="913.7247314453" type="qcurve" smooth="yes"/>
			<point x="447.6614379883" y="913.7247314453"/>
			<point x="342.5534057617" y="753.7169799805"/>
		</contour>
		<contour>
			<point x="633.766784668" y="906.873046875" type="line"/>
			<point x="615.766784668" y="986.9104003906" type="line"/>
			<point x="1026.0123291016" y="981.9104003906" type="line"/>
			<point x="1026.0123291016" y="861.5396728516" type="line"/>
		</contour>
	</outline>
	<anchor name="bottom" x="524" y="-416"/>
	<anchor name="top" x="484" y="1000"/>
</glyph>
<glyph name="h" format="2">
	<unicode hex="0068"/>
	<advance width="1202"/>
	<outline>
		<contour>
			<point x="74.6994628906" y="0" type="line"/>
			<point x="74.6994628906" y="81.0009765625" type="line"/>
			<point x="227.2604980469" y="116.0009765625" type="line"/>
			<point x="229.2604980469" y="533.9240112305" type="line"/>
			<point x="219.2604980469" y="1391.2000732422" type="line"/>
			<point x="80.2595214844" y="1432.2000732422" type="line"/>
			<point x="80.2595214844" y="1522.0012207031" type="line"/>
			<point x="353.1952514648" y="1534.0012207031" type="line"/>
			<point x="388.1952514648" y="1533.0012207031" type="line"/>
			<point x="402.1952514648" y="1500.0012207031" type="line"/>
			<point x="395.1952514648" y="854.5501098633" type="line"/>
			<point x="438.7001342773" y="924.7005004883"/>
			<point x="597.6098632812" y="1023.0037841797"/>
			<point x="700.3340454102" y="1023.0037841797" type="qcurve" smooth="yes"/>
			<point x="852.0574951172" y="1023.0037841797"/>
			<point x="991.337890625" y="867.3983764648"/>
			<point x="991.337890625" y="758.5699462891" type="qcurve" smooth="yes"/>
			<point x="991.337890625" y="702.7831420898"/>
			<point x="986.0072021484" y="600.7164916992"/>
			<point x="986.0072021484" y="533.9240112305" type="qcurve" smooth="yes"/>
			<point x="989.3339233398" y="116.0009765625" type="line"/>
			<point x="1154.4144897461" y="81.0009765625" type="line"/>
			<point x="1154.4144897461" y="0" type="line"/>
			<point x="643.783996582" y="0" type="line"/>
			<point x="643.783996582" y="81.0009765625" type="line"/>
			<point x="819.5842895508" y="116.0009765625" type="line"/>
			<point x="820.9229125977" y="533.9240112305" type="line"/>
			<point x="817.9229125977" y="701.2123413086" type="line" smooth="yes"/>
			<point x="816.9229125977" y="777.1434326172"/>
			<point x="729.3700561523" y="856.0529785156"/>
			<point x="644.9798583984" y="856.0529785156" type="qcurve" smooth="yes"/>
			<point x="569.6710205078" y="856.0529785156"/>
			<point x="427.7156982422" y="791.518371582"/>
			<point x="396.1952514648" y="719.9169311523" type="qcurve"/>
			<point x="395.1952514648" y="533.3773193359" type="line"/>
			<point x="397.1952514648" y="116.0009765625" type="line"/>
			<point x="546.9962768555" y="81.0009765625" type="line"/>
			<point x="546.9962768555" y="0" type="line"/>
		</contour>
	</outline>
	<anchor name="bottom" x="629" y="0"/>
	<anchor name="center" x="347" y="1202"/>
	<anchor name="top" x="304" y="1534"/>
</glyph>
<glyph name="k" format="2">
	<unicode hex="006B"/>
	<advance width="991"/>
	<outline>
		<contour>
			<point x="76.3450317383" y="0" type="line"/>
			<point x="76.3450317383" y="81.0009765625" type="line"/>
			<point x="232.3460083008" y="116.0009765625" type="line"/>
			<point x="234.4694213867" y="477" type="line"/>
			<point x="232.3460083008" y="1392.2000732422" type="line"/>
			<point x="78.145324707" y="1432.2000732422" type="line"/>
			<point x="78.145324707" y="1522.0012207031" type="line"/>
			<point x="354.4041748047" y="1534.0012207031" type="line"/>
			<point x="379.4041748047" y="1533.0012207031" type="line"/>
			<point x="400.4041748047" y="1500.0012207031" type="line"/>
			<point x="400.2807617188" y="491" type="line"/>
			<point x="402.4041748047" y="116.0009765625" type="line"/>
			<point x="551.4051513672" y="81.0009765625" type="line"/>
			<point x="551.4051513672" y="0" type="line"/>
		</contour>
		<contour>
			<point x="362.4059448242" y="420.7846069336" type="line"/>
			<point x="357.4059448242" y="546.214050293" type="line"/>
			<point x="706.7348022461" y="884.9093017578" type="line"/>
			<point x="616.7338256836" y="914.9093017578" type="line"/>
			<point x="616.7338256836" y="1000.9104003906" type="line"/>
			<point x="1011.5134887695" y="1000.9104003906" type="line"/>
			<point x="1011.5134887695" y="914.9093017578" type="line"/>
			<point x="868.512512207" y="884.9093017578" type="line"/>
		</contour>
		<contour>
			<point x="442.378112793" y="551.7402954102" type="line"/>
			<point x="566.7322387695" y="659.0346069336" type="line"/>
			<point x="921.4483032227" y="118.0009765625" type="line"/>
			<point x="1035.4492797852" y="81.0009765625" type="line"/>
			<point x="1035.4492797852" y="0" type="line"/>
			<point x="700.2311401367" y="0" type="line"/>
			<point x="691.9806518555" y="75.7084350586" type="line"/>
			<point x="713.6327514648" y="119.3380737305" type="line"/>
		</contour>
	</outline>
	<anchor name="bottom" x="608" y="0"/>
	<anchor name="top" x="578" y="1534"/>
</glyph>
<glyph name="l" format="2">
	<unicode hex="006C"/>
	<advance width="590"/>
	<outline>
		<contour>
			<point x="79.0021972656" y="0" type="line"/>
			<point x="79.0021972656" y="81.0009765625" type="line"/>
			<point x="228.0031738281" y="116.0009765625" type="line"/>
			<point x="230.1265869141" y="527" type="line"/>
			<point x="228.0031738281" y="1390.9659423828" type="line"/>
			<point x="58.0021972656" y="1430.9659423828" type="line"/>
			<point x="58.0021972656" y="1520.7670898438" type="line"/>
			<point x="339.4696655273" y="1534.0012207031" type="line"/>
			<point x="370.6420898438" y="1533.0012207031" type="line"/>
			<point x="393.061340332" y="1502.0012207031" type="line"/>
			<point x="390.9379272461" y="527" type="line"/>
			<point x="393.061340332" y="116.0009765625" type="line"/>
			<point x="544.0623168945" y="81.0009765625" type="line"/>
			<point x="544.0623168945" y="0" type="line"/>
		</contour>
	</outline>
	<anchor name="bottom" x="316" y="0"/>
	<anchor name="center" x="316" y="750"/>
	<anchor name="top" x="316" y="1534"/>
	<anchor name="topright" x="367" y="1000"/>
	<anchor name="centerright" x="746" y="680"/>
	<anchor name="yu_dash" x="321" y="500"/>
	<anchor name="liga" x="632" y="0"/>
</glyph>
<glyph name="m" format="2">
	<unicode hex="006D"/>
	<advance width="1821"/>
	<outline>
		<contour>
			<point x="76.3450317383" y="0" type="line"/>
			<point x="76.3450317383" y="81.0009765625" type="line"/>
			<point x="225.3460083008" y="116.0009765625" type="line"/>
			<point x="229.4694213867" y="618.9240112305" type="line"/>
			<point x="225.3460083008" y="845.1092529297" type="line"/>
			<point x="66.3450317383" y="880.1092529297" type="line"/>
			<point x="66.3450317383" y="971.9104003906" type="line"/>
			<point x="362.1827392578" y="1003.9104003906" type="line"/>
			<point x="386.8615112305" y="992.2933349609" type="line"/>
			<point x="395.4041748047" y="844.8294067383" type="line"/>
			<point x="446.3157958984" y="917.619934082"/>
			<point x="612.5217895508" y="1022.9104003906"/>
			<point x="707.9730224609" y="1022.9104003906" type="qcurve" smooth="yes"/>
			<point x="824.0516357422" y="1022.9104003906"/>
			<point x="972.6300048828" y="923.9031982422"/>
			<point x="979.3010253906" y="839.1506347656" type="qcurve"/>
			<point x="1029.1322021484" y="911.2667236328"/>
			<point x="1206.7303466797" y="1022.9104003906"/>
			<point x="1303.9995117188" y="1022.9104003906" type="qcurve" smooth="yes"/>
			<point x="1441.5085449219" y="1022.9104003906"/>
			<point x="1577.1583251953" y="894.1736450195"/>
			<point x="1577.1583251953" y="750.1776123047" type="qcurve" smooth="yes"/>
			<point x="1577.1583251953" y="696.8176879883"/>
			<point x="1573.396484375" y="557.3773193359"/>
			<point x="1573.8497924805" y="553.9240112305" type="qcurve" smooth="yes"/>
			<point x="1574.1583251953" y="116.0009765625" type="line"/>
			<point x="1775.1593017578" y="81.0009765625" type="line"/>
			<point x="1775.1593017578" y="0" type="line"/>
			<point x="1251.2225952148" y="0" type="line"/>
			<point x="1251.2225952148" y="81.0009765625" type="line"/>
			<point x="1406.2235717773" y="116.0009765625" type="line"/>
			<point x="1410.3469848633" y="562.9240112305" type="line"/>
			<point x="1411.9766235352" y="668.6890869141" type="line" smooth="yes"/>
			<point x="1412.7914428711" y="773.4417114258"/>
			<point x="1328.8570556641" y="874.8239746094"/>
			<point x="1264.3493041992" y="874.8239746094" type="qcurve" smooth="yes"/>
			<point x="1171.2806396484" y="874.8239746094"/>
			<point x="1013.9733886719" y="773.1638793945"/>
			<point x="983.3627319336" y="717.0515136719" type="qcurve"/>
			<point x="987.1159057617" y="801.5438842773"/>
			<point x="983.0541992188" y="568.0386962891"/>
			<point x="984.0541992188" y="553.9240112305" type="qcurve" smooth="yes"/>
			<point x="984.3627319336" y="116.0009765625" type="line"/>
			<point x="1184.3637084961" y="81.0009765625" type="line"/>
			<point x="1184.3637084961" y="0" type="line"/>
			<point x="651.4270019531" y="0" type="line"/>
			<point x="651.4270019531" y="81.0009765625" type="line"/>
			<point x="816.4279785156" y="116.0009765625" type="line"/>
			<point x="820.5513916016" y="586.9240112305" type="line"/>
			<point x="820.5513916016" y="668.6890869141" type="line" smooth="yes"/>
			<point x="820.5513916016" y="773.4417114258"/>
			<point x="744.3383789062" y="874.8239746094"/>
			<point x="667.5" y="874.8239746094" type="qcurve" smooth="yes"/>
			<point x="581.4991455078" y="874.8239746094"/>
			<point x="426.5875854492" y="779.9417114258"/>
			<point x="393.4042358398" y="720.0515136719" type="qcurve"/>
			<point x="393.1573486328" y="618.9240112305" type="line"/>
			<point x="395.2807617188" y="116.0009765625" type="line"/>
			<point x="549.2817382812" y="81.0009765625" type="line"/>
			<point x="549.2817382812" y="0" type="line"/>
		</contour>
	</outline>
	<anchor name="bottom" x="958" y="0"/>
	<anchor name="top" x="958" y="1000"/>
</glyph>
<glyph name="q" format="2">
	<unicode hex="0071"/>
	<advance width="1185"/>
	<outline>
		<contour>
			<point x="64.4408569336" y="485.0018920898" type="qcurve" smooth="yes"/>
			<point x="64.4408569336" y="751.2294921875"/>
			<point x="338.4125976562" y="1027.3773193359"/>
			<point x="579.5995483398" y="1027.3773193359" type="qcurve" smooth="yes"/>
			<point x="670.2100830078" y="1027.3773193359"/>
			<point x="797.2310791016" y="969.0037841797"/>
			<point x="836.0634765625" y="932.270324707" type="qcurve"/>
			<point x="917.0634765625" y="1015.3773193359" type="line"/>
			<point x="1148.7523803711" y="981.3773193359" type="line"/>
			<point x="1148.7523803711" y="892.276184082" type="line"/>
			<point x="988.7514038086" y="862.276184082" type="line"/>
			<point x="984.7514038086" y="441.6283569336" type="line"/>
			<point x="984.7514038086" y="-367.994140625" type="line"/>
			<point x="1137.7523803711" y="-402.994140625" type="line"/>
			<point x="1137.7523803711" y="-479.9951171875" type="line"/>
			<point x="640.0625" y="-479.9951171875" type="line"/>
			<point x="640.0625" y="-402.994140625" type="line"/>
			<point x="819.0634765625" y="-367.994140625" type="line"/>
			<point x="824.0634765625" y="124.4805297852" type="line"/>
			<point x="805.8617553711" y="71.5603027344"/>
			<point x="669.1638183594" y="-19"/>
			<point x="525.0784912109" y="-19" type="qcurve" smooth="yes"/>
			<point x="323.7619628906" y="-19"/>
			<point x="64.4408569336" y="233.8676757812"/>
		</contour>
		<contour>
			<point x="231.4990234375" y="491.188659668" type="qcurve" smooth="yes"/>
			<point x="231.4990234375" y="329.6516723633"/>
			<point x="381.6987915039" y="92.1856689453"/>
			<point x="508.1511230469" y="92.1856689453" type="qcurve" smooth="yes"/>
			<point x="634.5556640625" y="92.1856689453"/>
			<point x="800.8817138672" y="183.3473510742"/>
			<point x="821.0634765625" y="256.6009521484" type="qcurve"/>
			<point x="828.0634765625" y="783.6757202148" type="line"/>
			<point x="802.806640625" y="854.1145019531"/>
			<point x="622.9085693359" y="927.8583984375"/>
			<point x="564.240234375" y="927.8583984375" type="qcurve" smooth="yes"/>
			<point x="392.787902832" y="927.8583984375"/>
			<point x="231.4990234375" y="647.6893920898"/>
		</contour>
	</outline>
	<anchor name="bottom" x="594" y="0"/>
	<anchor name="top" x="594" y="1000"/>
</glyph>
<glyph name="r" format="2">
	<unicode hex="0072"/>
	<advance width="801"/>
	<outline>
		<contour>
			<point x="76.0021972656" y="0" type="line"/>
			<point x="76.0021972656" y="81.0009765625" type="line"/>
			<point x="225.0031738281" y="116.0009765625" type="line"/>
			<point x="227.1265869141" y="527.9104003906" type="line"/>
			<point x="225.0031738281" y="843.2580566406" type="line"/>
			<point x="66.0021972656" y="880.1092529297" type="line"/>
			<point x="66.0021972656" y="971.9104003906" type="line"/>
			<point x="361.5186767578" y="1003.9104003906" type="line"/>
			<point x="386.7528076172" y="992.9104003906" type="line"/>
			<point x="385.061340332" y="822.0587158203" type="line"/>
			<point x="438.0575561523" y="897.9104003906"/>
			<point x="604.1987915039" y="1000.3637084961"/>
			<point x="746.5346069336" y="1000.9104003906" type="qcurve" smooth="yes"/>
			<point x="812.0153808594" y="1000.9104003906" type="line"/>
			<point x="812.0153808594" y="723.5648803711" type="line"/>
			<point x="704.0144042969" y="723.5648803711" type="line"/>
			<point x="623.3107910156" y="863.7248535156" type="line"/>
			<point x="587.3967285156" y="862.5766601562"/>
			<point x="436.4087524414" y="769.6507568359"/>
			<point x="393.061340332" y="697.7618408203" type="qcurve"/>
			<point x="393.061340332" y="527.9104003906" type="line"/>
			<point x="395.061340332" y="116.0009765625" type="line"/>
			<point x="568.0623168945" y="81.0009765625" type="line"/>
			<point x="568.0623168945" y="0" type="line"/>
		</contour>
	</outline>
	<anchor name="bottom" x="432" y="0"/>
	<anchor name="top" x="486" y="1000"/>
</glyph>
<glyph name="s" format="2">
	<unicode hex="0073"/>
	<advance width="970"/>
	<outline>
		<contour>
			<point x="130.2285766602" y="8.2366943359" type="line"/>
			<point x="130.2285766602" y="371.2678222656" type="line"/>
			<point x="235.5999145508" y="371.2678222656" type="line"/>
			<point x="278.7850341797" y="283.7412109375" type="line" smooth="yes"/>
			<point x="323.5969238281" y="177.9709472656"/>
			<point x="380.2609863281" y="75.4819335938"/>
			<point x="476.3018188477" y="75.4819335938" type="qcurve" smooth="yes"/>
			<point x="582.640625" y="75.4819335938"/>
			<point x="676.4082641602" y="177.4284667969"/>
			<point x="676.4082641602" y="269.0626220703" type="qcurve" smooth="yes"/>
			<point x="676.4082641602" y="359.3912353516"/>
			<point x="585.3920898438" y="422.4302978516"/>
			<point x="434.834777832" y="484.9974365234" type="qcurve" smooth="yes"/>
			<point x="276.3577880859" y="551.9137573242"/>
			<point x="156.4553222656" y="650.0402832031"/>
			<point x="156.4553222656" y="766.6829223633" type="qcurve" smooth="yes"/>
			<point x="156.4553222656" y="883.7978515625"/>
			<point x="309.9855957031" y="1031.9104003906"/>
			<point x="453.6618652344" y="1031.9104003906" type="qcurve" smooth="yes"/>
			<point x="522.7710571289" y="1031.9104003906"/>
			<point x="591.8280639648" y="978.1572265625"/>
			<point x="618.630065918" y="960.0338134766" type="qcurve"/>
			<point x="677.8151855469" y="1016.6737060547" type="line"/>
			<point x="779.9271850586" y="1016.6737060547" type="line"/>
			<point x="779.9271850586" y="644.0870361328" type="line"/>
			<point x="676.8151245117" y="644.0870361328" type="line"/>
			<point x="646.5682983398" y="694.1787109375" type="line" smooth="yes"/>
			<point x="604.575012207" y="815.7027587891"/>
			<point x="517.4163208008" y="922.6136474609"/>
			<point x="455.426940918" y="922.6136474609" type="qcurve" smooth="yes"/>
			<point x="387.802734375" y="922.6136474609"/>
			<point x="322.873046875" y="854.2667236328"/>
			<point x="322.873046875" y="803.2391357422" type="qcurve" smooth="yes"/>
			<point x="322.873046875" y="739.7611694336"/>
			<point x="414.9791870117" y="662.2990112305"/>
			<point x="608.3790283203" y="598.291015625" type="qcurve" smooth="yes"/>
			<point x="714.2009277344" y="548.2008056641"/>
			<point x="845.8876342773" y="410.1676025391"/>
			<point x="845.8876342773" y="275.3795776367" type="qcurve" smooth="yes"/>
			<point x="845.8876342773" y="144.6735839844"/>
			<point x="654.5610351562" y="-29"/>
			<point x="504.8963012695" y="-29" type="qcurve" smooth="yes"/>
			<point x="382.5903320312" y="-29"/>
			<point x="328.2109985352" y="46.1234130859"/>
			<point x="291.8342285156" y="66.8765869141" type="qcurve"/>
			<point x="215.2788696289" y="8.2366943359" type="line"/>
		</contour>
	</outline>
	<anchor name="bottom" x="468" y="0"/>
	<anchor name="top" x="416" y="1000"/>
</glyph>
